HIERARCHY
ROOT Hips
{
	OFFSET 0.000000 0.000000 0.000000 
	CHANNELS 6 Xposition Yposition Zposition Yrotation Zrotation Xrotation 
	JOINT Lumbar
	{
		OFFSET 0.000000 0.000000 0.000000 
		CHANNELS 3 Zrotation Xrotation Yrotation
		JOINT Neck
		{
			OFFSET 0.000000 0.445665 0.000000 
			CHANNELS 3 Zrotation Xrotation Yrotation
			End Site
			{
				OFFSET 0.000000 0.227535 0.000000 
			}
		}
		JOINT RightShoulder
		{
			OFFSET 0.019635 0.377685 0.194865 
			CHANNELS 3 Zrotation Xrotation Yrotation
			JOINT RightElbow
			{
				OFFSET 0.000000 -0.243375 0.000000 
				CHANNELS 2 Zrotation Yrotation
				JOINT RightWrist
				{
					OFFSET 0.000000 -0.264825 0.000000 
					CHANNELS 2 Zrotation Xrotation
					End Site
					{
						OFFSET 0.006600 -0.176220 0.000990 
					}
				}
			}
		}
		JOINT LeftShoulder
		{
			OFFSET 0.019635 0.377685 -0.194865 
			CHANNELS 3 Zrotation Xrotation Yrotation
			JOINT LeftElbow
			{
				OFFSET 0.000000 -0.243375 0.000000 
				CHANNELS 2 Zrotation Yrotation
				JOINT LeftWrist
				{
					OFFSET 0.000000 -0.264825 0.000000 
					CHANNELS 2 Zrotation Xrotation
					End Site
					{
						OFFSET 0.006600 -0.176220 -0.000990 
					}
				}
			}
		}
	}
	JOINT RightHip
	{
		OFFSET 0.052140 -0.069960 0.075570 
		CHANNELS 3 Zrotation Xrotation Yrotation
		JOINT RightKnee
		{
			OFFSET 0.000000 -0.402270 0.000000 
			CHANNELS 1 Zrotation
			JOINT RightAnkle
			{
				OFFSET 0.000000 -0.404085 0.000000 
				CHANNELS 3 Zrotation Xrotation Yrotation
				End Site
				{
					OFFSET 0.204105 -0.089430 0.008415 
				}
			}
		}
	}
	JOINT LeftHip
	{
		OFFSET 0.052140 -0.069960 -0.075570 
		CHANNELS 3 Zrotation Xrotation Yrotation
		JOINT LeftKnee
		{
			OFFSET 0.000000 -0.402270 0.000000 
			CHANNELS 1 Zrotation
			JOINT LeftAnkle
			{
				OFFSET 0.000000 -0.404085 0.000000 
				CHANNELS 3 Zrotation Xrotation Yrotation
				End Site
				{
					OFFSET 0.204105 -0.089430 -0.008415 
				}
			}
		}
	}
}
MOTION
Frames: 11
Frame Time: 0.02
0.00024 3e-05 8e-05 -178.99368 -35.79771 -3.42019 43.8054 3.0786 -3.87007 -8.1737 -2.55285 -0.33894 71.98354 -98.96616 64.16937 5.33703 100.6025 11.77329 1.02115 57.57456 100.62563 -64.16718 7.7298 -96.03734 10.44772 -0.05471 40.68072 -2.63965 -4.23522 -22.23537 -6.84845 -3.66411 -2.52041 44.25413 9.03952 0.3009 -27.48839 -6.49796 2.81547 2.08074
0.00011 3e-05 9e-05 -178.99384 -35.81425 -3.4188 43.81528 3.08067 -3.85884 -8.18454 -2.54846 -0.33897 71.94927 -98.96133 64.16937 5.33693 100.66354 11.78137 1.00609 57.52337 100.63143 -64.16758 7.73928 -96.03727 10.44566 -0.04922 40.69329 -2.64298 -4.2421 -22.23685 -6.8457 -3.65443 -2.51871 44.26411 9.00489 0.1686 -27.48696 -6.49892 2.8293 2.08955
-3e-05 3e-05 9e-05 -178.99399 -35.83073 -3.41743 43.82513 3.08272 -3.84765 -8.19539 -2.54408 -0.33901 71.91507 -98.9565 64.16937 5.33684 100.72445 11.78947 0.99106 57.47237 100.6372 -64.16798 7.74873 -96.0372 10.44367 -0.04374 40.70579 -2.64632 -4.24907 -22.23833 -6.84296 -3.64477 -2.517 44.27405 8.97037 0.03672 -27.48554 -6.49987 2.8431 2.09832
-0.00016 3e-05 0.0001 -178.99415 -35.84721 -3.41605 43.83498 3.08478 -3.83645 -8.20621 -2.5397 -0.33905 71.88091 -98.95167 64.16937 5.33675 100.78531 11.79754 0.97605 57.42134 100.64299 -64.16838 7.75818 -96.03712 10.44162 -0.03828 40.71831 -2.64964 -4.25595 -22.2398 -6.84022 -3.63512 -2.5153 44.284 8.93584 -0.09517 -27.48411 -6.50082 2.85689 2.1071
-0.0003 3e-05 0.0001 -178.99432 -35.86377 -3.41467 43.84486 3.08684 -3.82521 -8.21701 -2.53533 -0.33909 71.84671 -98.94685 64.16937 5.33666 100.84627 11.80558 0.96101 57.3701 100.64882 -64.16877 7.76766 -96.03704 10.43949 -0.0328 40.73091 -2.65294 -4.26269 -22.24129 -6.83748 -3.62545 -2.5136 44.29401 8.9012 -0.22751 -27.48269 -6.50178 2.87072 2.11591
-0.00044 3e-05 0.00011 -178.99443 -35.88009 -3.4133 43.85466 3.08889 -3.8141 -8.22796 -2.53092 -0.33913 71.81252 -98.942 64.16937 5.33656 100.90708 11.81382 0.946 57.3196 100.65446 -64.16917 7.77703 -96.037 10.43779 -0.02732 40.7432 -2.65634 -4.27015 -22.24274 -6.83474 -3.61582 -2.51189 44.30378 8.86695 -0.35841 -27.48128 -6.50272 2.88442 2.12463
-0.00057 3e-05 0.00011 -178.99466 -35.89685 -3.4119 43.86461 3.09096 -3.80275 -8.23861 -2.52658 -0.33916 71.77831 -98.9372 64.16937 5.33647 100.96813 11.82164 0.93095 57.26766 100.66047 -64.16957 7.78662 -96.03687 10.43522 -0.02186 40.7561 -2.65954 -4.27617 -22.24427 -6.832 -3.60612 -2.51021 44.31402 8.83196 -0.49204 -27.47983 -6.5037 2.89837 2.13352
-0.00071 3e-05 0.00012 -178.99478 -35.91321 -3.41053 43.87441 3.09301 -3.79163 -8.24952 -2.52218 -0.3392 71.74417 -98.93237 64.16937 5.33638 101.02893 11.82984 0.91595 57.21709 100.66614 -64.16997 7.796 -96.03682 10.43345 -0.01639 40.76843 -2.66293 -4.28349 -22.24572 -6.82926 -3.59648 -2.5085 44.32382 8.79764 -0.62316 -27.47842 -6.50464 2.91209 2.14225
-0.00084 3e-05 0.00012 -178.99477 -35.92906 -3.4092 43.88408 3.09505 -3.78077 -8.2608 -2.51772 -0.33925 71.70988 -98.92746 64.16937 5.33629 101.08957 11.83854 0.90092 57.168 100.67141 -64.17035 7.80514 -96.0369 10.43269 -0.01085 40.78007 -2.66656 -4.29254 -22.24709 -6.82653 -3.58694 -2.50674 44.3331 8.76414 -0.75126 -27.47706 -6.50555 2.92556 2.15078
-0.00098 4e-05 0.00013 -178.99551 -35.94781 -3.40765 43.89464 3.0972 -3.7683 -8.27012 -2.51364 -0.33926 71.67578 -98.92285 64.16937 5.33618 101.15157 11.84449 0.88581 57.10982 100.67901 -64.17079 7.81573 -96.03631 10.42619 -0.00557 40.79573 -2.66882 -4.29205 -22.24897 -6.82377 -3.57687 -2.50522 44.34547 8.72592 -0.89689 -27.47542 -6.50668 2.94053 2.16045
-0.00111 4e-05 0.00013 -178.99465 -35.96043 -3.40656 43.90324 3.09908 -3.75929 -8.28347 -2.50874 -0.33935 71.64171 -98.9177 64.16937 5.33611 101.21043 11.85615 0.87102 57.07119 100.68171 -64.17112 7.82321 -96.0371 10.43176 0.00019 40.80288 -2.67395 -4.31141 -22.24976 -6.82106 -3.56792 -2.50322 44.35127 8.69766 -1.00544 -27.47436 -6.50733 2.9523 2.16772
